<?xml version="1.0" encoding="UTF-8"?>
<svg id="_图层_1" data-name="图层_1" xmlns="http://www.w3.org/2000/svg" version="1.1" viewBox="0 0 266.55 32.95">
  <!-- Generator: Adobe Illustrator 30.0.0, SVG Export Plug-In . SVG Version: 2.1.1 Build 123)  -->
  <defs>
    <style>
      .st0 {
        fill: #ff9a00;
      }

      .st1 {
        fill: #00cc29;
      }

      .st2 {
        fill: #fff;
      }

      .st3 {
        fill: #0083ff;
      }
    </style>
  </defs>
  <g>
    <path class="st2" d="M132.65,5.23l-12.24,22.69h6.09l1.98-3.94h8.16l.64,3.94h6.09l-4.49-22.69h-6.24.01ZM130.77,19.49l3.85-7.55,1.27,7.55h-5.13,0Z"/>
    <path class="st2" d="M81.82,8.05c-.89-1.08-2.04-1.93-3.43-2.54s-2.97-.92-4.74-.92-3.48.31-5.07.92-3.01,1.46-4.27,2.54c-1.25,1.08-2.31,2.35-3.16,3.81-.85,1.45-1.42,3.02-1.71,4.71-.29,1.69-.26,3.25.1,4.71.35,1.45.97,2.72,1.86,3.81.88,1.08,2.02,1.93,3.4,2.54,1.38.61,2.97.92,4.75.92s3.45-.31,5.05-.92c1.6-.61,3.03-1.46,4.3-2.54,1.26-1.08,2.32-2.35,3.17-3.81.85-1.46,1.42-3.02,1.71-4.71.29-1.68.26-3.25-.1-4.71-.35-1.45-.98-2.72-1.87-3.81M76.89,19.07c-.46.76-1.03,1.43-1.69,1.99-.67.56-1.4,1-2.21,1.31-.8.31-1.62.47-2.45.47s-1.6-.16-2.3-.47c-.69-.31-1.28-.75-1.74-1.31-.47-.56-.8-1.22-1-1.99-.2-.76-.22-1.59-.07-2.5.15-.9.46-1.73.92-2.5.46-.76,1.02-1.42,1.68-1.99.66-.56,1.39-1,2.19-1.31.8-.31,1.62-.47,2.45-.47s1.6.16,2.3.47c.69.31,1.28.75,1.76,1.31.48.56.82,1.22,1.02,1.99.2.76.22,1.6.07,2.5s-.46,1.74-.92,2.5"/>
    <polygon class="st2" points="120.34 22.92 108.78 22.92 109.45 19.01 120.63 19.01 121.49 14.01 110.3 14.01 110.95 10.22 122.51 10.22 123.37 5.23 106.09 5.23 102.22 27.92 119.5 27.91 120.34 22.92"/>
    <polygon class="st2" points="160.14 18.84 153.46 5.23 147.75 5.23 143.88 27.92 149.59 27.92 151.96 14.3 158.63 27.92 164.31 27.92 168.19 5.23 162.5 5.23 160.14 18.84"/>
    <path class="st2" d="M185.64,21.33c.12-.68.15-1.32.1-1.93-.05-.6-.22-1.14-.49-1.63s-.68-.89-1.19-1.22c-.52-.33-1.17-.58-1.96-.74.9-.52,1.62-1.16,2.15-1.91s.89-1.7,1.08-2.84c.32-1.88.04-3.33-.83-4.33-.88-1-2.33-1.5-4.35-1.5h-9.26l-3.87,22.69h9.93c1.17,0,2.24-.14,3.22-.42s1.84-.7,2.59-1.26,1.37-1.25,1.87-2.08c.5-.82.84-1.76,1.02-2.83M175.82,9.74h1.8c1.79,0,2.56.73,2.31,2.2-.25,1.46-1.27,2.2-3.06,2.2h-1.8l.75-4.39h0ZM178.69,22.77c-.69.38-1.75.57-3.19.57h-2.01l.82-4.82h2.01c1.44,0,2.43.19,2.99.57.56.38.76.99.62,1.84-.14.84-.56,1.46-1.25,1.84"/>
    <path class="st2" d="M219.68,14.07c-.44-.16-.88-.31-1.34-.45-.45-.14-.85-.31-1.2-.5-.35-.19-.61-.42-.8-.68s-.25-.59-.18-.99c.1-.58.41-1.05.94-1.41s1.16-.54,1.9-.54c.58,0,1.16.13,1.74.38s1.13.64,1.67,1.16l3.06-4.6c-.99-.6-2.04-1.06-3.18-1.37-1.13-.31-2.24-.47-3.33-.47-1.17,0-2.25.18-3.25.54s-1.89.87-2.65,1.52-1.4,1.44-1.92,2.35-.87,1.93-1.06,3.05-.18,2.05.03,2.78c.22.73.56,1.34,1.03,1.82s1.04.87,1.7,1.16c.66.29,1.34.56,2.03.8.58.22,1.08.42,1.49.6s.73.38.96.59c.24.21.39.44.47.69.07.25.08.55.02.89-.1.56-.41,1.06-.94,1.5s-1.26.66-2.2.66c-.82,0-1.61-.19-2.38-.57s-1.52-.96-2.24-1.75l-3.26,4.76c2.08,1.71,4.51,2.56,7.29,2.56,1.34,0,2.57-.19,3.69-.56,1.12-.37,2.11-.89,2.95-1.56s1.54-1.48,2.08-2.42c.54-.94.91-2,1.11-3.16.29-1.73.1-3.12-.58-4.2-.68-1.07-1.9-1.93-3.66-2.57"/>
    <path class="st2" d="M98.34,4.59c-1.54,0-3.05.3-4.55.89-1.5.59-2.87,1.42-4.11,2.47-1.24,1.05-2.3,2.31-3.18,3.76-.88,1.46-1.47,3.05-1.77,4.8-.3,1.75-.25,3.35.14,4.83s1.02,2.75,1.9,3.82c.88,1.07,1.96,1.91,3.25,2.5s2.69.89,4.21.89c.74,0,1.5-.08,2.28-.23s1.64-.39,2.57-.71l.62-.21,1.19-6.98c-1.73,1.61-3.51,2.41-5.34,2.41-.84,0-1.59-.16-2.25-.48s-1.22-.76-1.65-1.32c-.44-.56-.74-1.22-.91-1.99-.17-.76-.18-1.59-.03-2.5.15-.88.44-1.71.87-2.47s.96-1.42,1.58-1.97,1.32-.99,2.1-1.31,1.6-.48,2.46-.48c1.94,0,3.43.83,4.47,2.5l1.2-7.04c-.86-.4-1.7-.7-2.51-.89-.81-.19-1.66-.29-2.53-.29"/>
    <path class="st2" d="M205.63,23.15c-.93-.18-2.74-.29-5.82.45l.7,4.4h6.09l-.97-4.85h0Z"/>
    <path class="st2" d="M205.38,21.83l-.99-5c-1.47.03-3.32.25-5.6.83-.25.06-.51.13-.77.2-1.27.35-2.44.58-3.51.74l3.34-6.58.72,4.4c2.29-.58,4.13-.8,5.6-.83l-2.06-10.28h-6.24l-12.24,22.69h6.09l2.2-4.32c1.83-.13,4.06-.45,6.58-1.14.37-.1.72-.19,1.05-.27,3.09-.73,4.9-.63,5.82-.45"/>
    <g>
      <path class="st2" d="M235.96,14.2c-4.53,1.19-7.98,1.07-9.49.93l-.81,4.88c.43.03.93.06,1.5.07,2.23.04,5.51-.16,9.46-1.2,3.75-.98,5.96-.92,7.09-.73l.81-4.9c-1.9-.2-4.67-.08-8.58.95"/>
      <path class="st2" d="M237.13,5.42c-4.33,1.13-7.67,1.08-9.27.95l-1.21,7.49c1.06.1,3.07.18,5.74-.19l.43-2.61c1.5-.18,3.17-.48,4.99-.96,4-1.05,6.24-.91,7.3-.69l.81-4.91c-1.91-.23-4.74-.14-8.79.92"/>
      <path class="st2" d="M234.86,22.66c-1.43.37-2.76.62-3.94.78l.39-2.39c-1.66.19-3.1.24-4.26.21-.56,0-1.05-.04-1.47-.07l-1.22,7.27c.47.04,1.04.08,1.71.09,2.23.04,5.51-.16,9.46-1.2,3.53-.92,5.7-.92,6.89-.76l.81-4.89c-1.9-.17-4.61-.02-8.37.96"/>
    </g>
  </g>
  <g>
    <path class="st3" d="M0,11.03c18.57,2.56,27.53-8.96,50.58-6.4v17.29c-18.57-2.56-27.53,8.96-50.58,6.48V11.03Z"/>
    <path class="st0" d="M23.08,0C12.94,3.15,8.11,4.48,0,3.33v5.77l.2.03c8.6,1.19,15.16-.79,22.1-2.89.84-.25,1.69-.51,2.55-.76L23.07,0h.01Z"/>
    <path class="st1" d="M50.36,23.81c-8.61-1.19-15.18.81-22.14,2.92-.82.25-1.66.5-2.51.76l1.78,5.46c10.14-3.15,14.98-4.48,23.09-3.33v-5.77l-.21-.03h-.01Z"/>
  </g>
  <rect class="st2" x="265.55" y="2.48" width="1" height="27.97"/>
</svg>